<?xml version="1.0" encoding="UTF-8" standalone="no"?>
<!DOCTYPE svg PUBLIC "-//W3C//DTD SVG 1.1//EN" "http://www.w3.org/Graphics/SVG/1.1/DTD/svg11.dtd">
<svg width="100%" height="100%" viewBox="0 0 256 256" version="1.1" xmlns="http://www.w3.org/2000/svg" xmlns:xlink="http://www.w3.org/1999/xlink" xml:space="preserve" xmlns:serif="http://www.serif.com/" style="fill-rule:evenodd;clip-rule:evenodd;stroke-linejoin:round;stroke-miterlimit:2;">
    <g id="Anchor-Shape" serif:id="Anchor Shape" transform="matrix(0.5,0,0,0.5,0,0)">
        <path d="M438.946,79.871C482.94,125.56 510,187.645 510,256C510,396.186 396.186,510 256,510C115.814,510 2,396.186 2,256C2,115.814 115.814,2 256,2C277.042,2 297.49,4.564 317.059,9.4C314.666,12.33 312.474,15.494 310.52,18.878C293.589,48.205 299.977,84.655 323.817,106.771L311.26,125.178L286.23,110.727C286.172,96.706 279.055,83.057 266.041,75.543C246.578,64.306 221.612,70.996 210.375,90.459C199.138,109.922 205.828,134.888 225.291,146.125C238.304,153.638 253.684,152.977 265.855,146.017L288.229,158.935L163.875,341.233C137.816,317.624 120.481,287.135 114.685,254.874L162.266,248.442C165.072,248.062 167.588,246.538 169.223,244.236C170.859,241.91 171.452,239.029 170.875,236.261C169.35,228.958 154.941,164.326 120.418,144.394C110.677,138.771 98.208,142.112 92.585,151.852C75.617,181.24 68.705,215.116 72.608,249.697C78.042,300.841 106.297,349.375 150.026,382.785C157.515,388.579 165.452,393.903 173.622,398.62C181.385,403.102 189.873,407.309 199.02,411.19C286.825,447.556 385.207,419.271 427.847,345.416C433.471,335.676 430.13,323.206 420.389,317.583C385.866,297.651 322.689,317.488 315.602,319.819C312.915,320.703 310.717,322.657 309.521,325.237C308.345,327.805 308.282,330.745 309.358,333.365L327.581,377.801C297.453,388.581 262.274,389.386 228.127,378.481L323.891,179.524L346.265,192.442C346.323,206.462 353.44,220.112 366.454,227.625C385.917,238.862 410.883,232.173 422.12,212.71C433.357,193.247 426.667,168.281 407.204,157.044C394.191,149.53 378.811,150.191 366.64,157.151L341.61,142.7L351.273,122.623C382.346,132.21 417.106,119.518 434.038,90.191C435.976,86.834 437.609,83.383 438.946,79.871ZM382.467,36.889C392.198,42.508 395.543,54.991 389.925,64.722C384.306,74.454 371.823,77.798 362.092,72.18C352.36,66.562 349.015,54.078 354.634,44.347C360.252,34.616 372.735,31.271 382.467,36.889Z"/>
    </g>
</svg>
